<?xml version="1.0" standalone="no"?>
<!DOCTYPE svg PUBLIC "-//W3C//DTD SVG 20010904//EN"
 "http://www.w3.org/TR/2001/REC-SVG-20010904/DTD/svg10.dtd">
<svg version="1.0" xmlns="http://www.w3.org/2000/svg"
 width="700.000000pt" height="700.000000pt" viewBox="0 0 700.000000 700.000000"
 preserveAspectRatio="xMidYMid meet">
<metadata>
Created by potrace 1.11, written by Peter Selinger 2001-2013
</metadata>
<g transform="translate(0.000000,700.000000) scale(0.100000,-0.100000)"
fill="#000000" stroke="none">
<path d="M3360 6663 c-289 -40 -503 -162 -685 -388 -22 -28 -43 -52 -46 -55
-8 -6 -129 -190 -129 -195 0 -2 -14 -28 -31 -57 -78 -131 -787 -1546 -1060
-2115 -33 -68 -87 -180 -120 -250 -112 -233 -319 -670 -380 -801 -22 -46 -39
-87 -39 -91 0 -5 -24 -60 -53 -122 -30 -63 -75 -166 -101 -229 -27 -63 -54
-128 -61 -145 -14 -34 -45 -126 -45 -137 -1 -4 -7 -25 -15 -47 -7 -22 -16 -56
-20 -78 -3 -21 -10 -67 -16 -103 -10 -64 -14 -296 -6 -335 3 -11 8 -40 12 -65
32 -211 145 -457 288 -625 174 -205 391 -349 647 -430 78 -25 92 -28 225 -50
77 -13 308 -13 400 0 150 20 383 105 555 201 262 147 459 307 810 658 3 3 71
-59 150 -137 80 -78 170 -163 200 -189 343 -295 707 -484 1025 -532 70 -11
318 -14 375 -5 30 5 70 11 89 14 295 47 612 232 813 475 107 129 229 360 253
480 2 8 8 33 13 55 35 135 44 302 25 463 -30 257 -107 461 -431 1142 -27 58
-68 143 -90 190 -134 285 -214 452 -371 774 -66 137 -121 251 -121 253 0 6
-621 1245 -667 1333 -23 41 -88 165 -145 275 -119 228 -197 359 -272 460 -213
284 -453 404 -811 409 -77 1 -151 1 -165 -1z m282 -419 c118 -28 242 -97 329
-185 43 -43 175 -249 243 -379 79 -151 932 -1856 996 -1990 40 -85 118 -247
172 -359 54 -112 98 -204 98 -206 0 -1 34 -73 75 -160 41 -86 75 -158 75 -160
0 -2 31 -68 69 -147 158 -330 300 -674 316 -768 3 -19 10 -51 14 -70 13 -58 5
-269 -13 -345 -77 -327 -320 -586 -657 -699 -300 -101 -640 -33 -982 195 -80
54 -126 89 -272 208 -56 46 -335 330 -335 341 0 10 83 126 100 140 4 3 39 51
79 108 293 415 458 734 557 1077 10 33 18 65 19 70 2 6 10 46 20 90 27 124 30
394 4 510 -45 209 -114 347 -246 495 -147 166 -360 285 -563 317 -19 3 -54 8
-78 13 -56 10 -267 10 -323 0 -24 -5 -62 -11 -84 -14 -123 -20 -300 -95 -408
-174 -72 -52 -182 -163 -222 -224 -15 -24 -36 -54 -45 -68 -35 -54 -129 -280
-115 -280 2 0 -3 -20 -10 -44 -31 -102 -39 -344 -16 -496 58 -380 296 -861
680 -1374 l110 -146 -142 -143 c-166 -167 -202 -199 -322 -293 -263 -208 -493
-311 -759 -341 -488 -55 -919 249 -1026 725 -46 201 -23 436 62 632 11 25 24
54 28 65 34 81 120 276 156 353 24 52 44 95 44 97 0 2 28 61 61 131 34 71 74
156 89 189 80 173 169 361 290 610 50 105 124 255 162 335 144 296 872 1746
937 1865 156 285 243 382 416 461 113 52 289 68 417 38z m28 -2312 c232 -52
416 -229 476 -462 18 -69 22 -106 19 -200 -2 -63 -6 -128 -9 -145 -89 -406
-237 -709 -564 -1154 -31 -42 -59 -78 -62 -81 -3 -3 -13 -15 -21 -26 -14 -21
-18 -17 -106 100 -314 418 -495 780 -559 1121 -2 11 -8 41 -12 67 -5 25 -8 95
-7 155 2 189 65 334 200 468 85 84 202 142 333 165 71 13 239 8 312 -8z"/>
</g>
</svg>
